<?xml version="1.0" encoding="UTF-8"?>
<svg width="34px" height="29px" viewBox="0 0 34 29" version="1.1" xmlns="http://www.w3.org/2000/svg" xmlns:xlink="http://www.w3.org/1999/xlink">
    <!-- Generator: Sketch 51.2 (57519) - http://www.bohemiancoding.com/sketch -->
    <title>Group 11</title>
    <desc>Created with Sketch.</desc>
    <defs></defs>
    <g id="404/construction-💯" stroke="none" stroke-width="1" fill="none" fill-rule="evenodd">
        <g id="Roadmap" transform="translate(-702.000000, -239.000000)" fill-rule="nonzero">
            <g id="Group-11" transform="translate(702.000000, 239.000000)">
                <path d="M19.5,23 C24.1944204,23 28,19.1944204 28,14.5 C28,9.80557963 24.1944204,6 19.5,6 C16.735382,6 12.7558577,8.76106616 7.88149594,14.5 C12.7558577,20.2389338 16.735382,23 19.5,23 Z M19.5,29 C14.0809134,29 8.27483452,24.6922641 1.65229611,16.3676955 L0.166467142,14.5 L1.65229611,12.6323045 C8.27483452,4.30773595 14.0809134,0 19.5,0 C27.5081289,0 34,6.49187113 34,14.5 C34,22.5081289 27.5081289,29 19.5,29 Z" id="Oval-2-Copy-5" fill="#009CEB"></path>
                <path d="M19.5,23 C24.1944204,23 28,19.1944204 28,14.5 C28,9.80557963 24.1944204,6 19.5,6 C16.735382,6 12.7558577,8.76106616 7.88149594,14.5 C12.7558577,20.2389338 16.735382,23 19.5,23 Z" id="Path" fill="#FFFFFF"></path>
            </g>
        </g>
    </g>
</svg>